<?xml version="1.0" encoding="utf-8"?>
<!-- Generator: Adobe Illustrator 28.3.0, SVG Export Plug-In . SVG Version: 6.00 Build 0)  -->
<svg version="1.1" xmlns="http://www.w3.org/2000/svg" xmlns:xlink="http://www.w3.org/1999/xlink" x="0px" y="0px"
	 viewBox="0 0 140 33" style="enable-background:new 0 0 140 33;" xml:space="preserve">
<style type="text/css">
	.st0{display:none;}
	.st1{display:inline;}
	.st2{fill:#00AEEF;}
	.st3{fill:#FFFFFF;}
</style>
<g id="Layer_2" class="st0">
</g>
<g id="Layer_3">
	<g>
		<path class="st2" d="M24.37,2.81c-0.16-1.3-1.2-1.48-1.34-1.5c-0.01,0-0.02,0-0.03,0H6.41c-0.02,0-0.05,0-0.07,0.01
			C5.6,1.57,5.26,2.38,5.26,2.59c0,0.29,0,0.42,0,0.45v27.62c0,0.02,0,0.04,0.01,0.06c0.16,0.76,0.94,1.01,1.1,1.05
			c0.02,0.01,0.04,0.01,0.06,0.01h5.16c0.13,0,0.24-0.11,0.24-0.24l0.11-18.53c0-0.13,0.11-0.24,0.24-0.24h10.13
			c1.1-0.05,1.92-2.03,2.05-2.35c0.01-0.03,0.02-0.06,0.02-0.09V2.85C24.37,2.84,24.37,2.83,24.37,2.81z M18.32,9.24
			c-0.13,0.38-0.36,0.76-0.69,1c-0.34,0.24-0.72,0.33-1.13,0.36c-0.49,0.03-0.82,0.02-1.32,0.02c-0.41,0-0.82,0.01-1.23,0.01
			c-0.77-0.01-1.54,0.01-2.31,0.01c0,0-0.02,0-0.02,0c0,0,0-5.81,0-5.81c0-0.01,0.01-0.01,0.01-0.01c0.81,0,1.61,0,2.42,0
			c1.15,0,2.66-0.24,3.61,0.62C18,5.73,18.2,6.16,18.3,6.6c0.11,0.48,0.12,0.97,0.13,1.46C18.45,8.47,18.46,8.85,18.32,9.24z"/>
		<path class="st2" d="M26.52,20.43l0.03-17.65c0,0,0.1-1.53,1.19-1.53h18.32l0,2.34c-0.24,0-0.49,0-0.73,0c-0.62,0-1.24,0-1.86,0
			c-0.84,0-1.67,0-2.51,0c-0.89,0-1.78,0-2.67,0c-0.78,0-1.56,0-2.33,0c-0.5,0-1.01,0-1.51,0c-0.27,0-0.49,0.05-0.7,0.24
			c-0.32,0.28-0.51,0.65-0.54,1.07c-0.03,0.53-0.01,1.07-0.02,1.6c-0.01,0.92-0.02,1.84-0.03,2.76c0,0.28-0.01,0.57-0.01,0.85
			l12.92,0.01v2.52H34.33h-1.14l-0.08,5.54c0,0-0.19,1.1,1.02,1.08l11.91-0.02v2.96h-17.8C28.26,22.19,26.52,21.73,26.52,20.43z"/>
		<path class="st2" d="M61.61,12.61h3.87c0.94-0.08,1.55-1.95,1.55-1.95V3.16c0-1.38-1.55-1.91-1.55-1.91H49.56
			c-1.26,0-1.67,1.51-1.67,1.51s-0.04,17.35,0,18.2c0.04,0.86,1.3,1.24,1.3,1.24h5.29v-7.75l5.66,7.75h9.16L61.61,12.61z
			 M61.21,9.79c-0.52,0.41-1.2,0.3-1.82,0.3c-0.62,0-1.24,0-1.86,0c-1.01,0-2.02,0-3.04,0c-0.03,0-0.06,0-0.09,0V4.26
			c0.75,0,1.51,0,2.26,0c1.15,0,2.31,0,3.46,0c0.34,0,0.59-0.02,0.88,0.19c0.24,0.17,0.45,0.39,0.59,0.65
			c0.27,0.5,0.16,1.07,0.16,1.62c0,0.6,0,1.2,0,1.81C61.75,9.02,61.63,9.46,61.21,9.79z"/>
		<path class="st2" d="M71.12,22.04l0.06-20.27c0,0,0-0.51,0.53-0.53h5.93L89.1,17.23V1.24h2.28v20.99h-7.15L73.17,5.3v16.75
			L71.12,22.04z"/>
		<path class="st2" d="M93.31,20.43l0.03-17.65c0,0,0.1-1.53,1.19-1.53h18.32v2.34c-0.24,0-0.49,0-0.73,0c-0.62,0-1.24,0-1.86,0
			c-0.84,0-1.67,0-2.51,0c-0.89,0-1.78,0-2.67,0c-0.78,0-1.56,0-2.33,0c-0.5,0-1.01,0-1.51,0c-0.27,0-0.49,0.05-0.7,0.24
			C100.2,4.1,100,4.47,99.98,4.9c-0.03,0.53-0.01,1.07-0.02,1.6c-0.01,0.92-0.02,1.84-0.03,2.76c0,0.28-0.01,0.57-0.01,0.85
			l12.92,0.01v2.52h-11.72h-1.14l-0.08,5.54c0,0-0.19,1.1,1.02,1.08l11.91-0.02v2.96h-17.8C95.05,22.19,93.31,21.73,93.31,20.43z"/>
		<path class="st2" d="M114.73,6.82c0,0,0.92-5.54,5.24-5.58c4.32-0.04,14.77,0,14.77,0v2.51l-9.86,0.14h-0.65
			c0,0-2.93,1.06-2.93,3.53v8.15c0,0,0.18,3.6,4.37,3.64c4.19,0.04,9.07,0,9.07,0v2.85h-14.17c0,0-5.81-1.3-5.84-5.27V6.82z"/>
		<g>
			<path class="st3" d="M24.48,29.77c0,0.04,0,0.08-0.01,0.12c0,0.03-0.01,0.06-0.03,0.08s-0.03,0.04-0.04,0.05
				c-0.02,0.01-0.03,0.01-0.05,0.01h-2.31c-0.06,0-0.11-0.02-0.16-0.06c-0.05-0.04-0.08-0.11-0.08-0.2v-4.28
				c0-0.1,0.03-0.16,0.08-0.2c0.05-0.04,0.1-0.06,0.16-0.06h2.28c0.02,0,0.04,0,0.05,0.01c0.02,0.01,0.03,0.03,0.04,0.05
				c0.01,0.02,0.02,0.05,0.02,0.08c0.01,0.03,0.01,0.07,0.01,0.12c0,0.04,0,0.08-0.01,0.12c-0.01,0.03-0.01,0.06-0.02,0.08
				c-0.01,0.02-0.02,0.04-0.04,0.05c-0.02,0.01-0.03,0.01-0.05,0.01h-1.88v1.51h1.61c0.02,0,0.04,0.01,0.05,0.02
				c0.02,0.01,0.03,0.03,0.04,0.05c0.01,0.02,0.02,0.05,0.02,0.08c0,0.03,0.01,0.08,0.01,0.12c0,0.04,0,0.08-0.01,0.12
				c0,0.03-0.01,0.06-0.02,0.08c-0.01,0.02-0.02,0.03-0.04,0.04s-0.03,0.01-0.05,0.01h-1.61v1.72h1.9c0.02,0,0.04,0,0.05,0.01
				c0.02,0.01,0.03,0.03,0.04,0.05c0.01,0.02,0.02,0.05,0.03,0.08C24.48,29.68,24.48,29.72,24.48,29.77z"/>
			<path class="st3" d="M28.52,29.94c0,0.02,0,0.04-0.01,0.05s-0.03,0.03-0.05,0.04c-0.02,0.01-0.05,0.02-0.09,0.02
				c-0.04,0-0.09,0.01-0.15,0.01c-0.06,0-0.11,0-0.15-0.01s-0.07-0.01-0.09-0.02c-0.02-0.01-0.04-0.02-0.05-0.04
				c-0.01-0.01-0.01-0.03-0.01-0.05v-1.96c0-0.19-0.01-0.34-0.04-0.46c-0.03-0.12-0.07-0.22-0.13-0.3s-0.13-0.15-0.22-0.19
				c-0.09-0.04-0.19-0.07-0.31-0.07c-0.15,0-0.31,0.05-0.46,0.16c-0.15,0.11-0.31,0.27-0.48,0.48v2.33c0,0.02,0,0.04-0.01,0.05
				c-0.01,0.01-0.03,0.03-0.05,0.04c-0.02,0.01-0.05,0.02-0.09,0.02s-0.09,0.01-0.15,0.01c-0.06,0-0.11,0-0.15-0.01
				s-0.07-0.01-0.09-0.02c-0.02-0.01-0.04-0.02-0.05-0.04s-0.01-0.03-0.01-0.05V26.6c0-0.02,0-0.04,0.01-0.05
				c0.01-0.01,0.02-0.03,0.04-0.04c0.02-0.01,0.05-0.02,0.09-0.02c0.03,0,0.08-0.01,0.14-0.01c0.05,0,0.1,0,0.14,0.01
				c0.04,0,0.06,0.01,0.08,0.02c0.02,0.01,0.03,0.02,0.04,0.04c0.01,0.01,0.01,0.03,0.01,0.05v0.44c0.19-0.21,0.38-0.36,0.56-0.46
				c0.19-0.1,0.38-0.15,0.57-0.15c0.22,0,0.41,0.04,0.56,0.11c0.15,0.08,0.28,0.18,0.37,0.3c0.09,0.13,0.16,0.27,0.2,0.44
				c0.04,0.17,0.06,0.37,0.06,0.61V29.94z"/>
			<path class="st3" d="M32.34,29.95c0,0.03-0.01,0.05-0.03,0.07c-0.02,0.01-0.05,0.03-0.08,0.03s-0.09,0.01-0.15,0.01
				c-0.06,0-0.12,0-0.15-0.01s-0.07-0.02-0.08-0.03c-0.02-0.01-0.03-0.04-0.03-0.07v-0.33c-0.15,0.16-0.31,0.28-0.49,0.36
				c-0.18,0.09-0.37,0.13-0.57,0.13c-0.18,0-0.33-0.02-0.48-0.07c-0.14-0.05-0.26-0.11-0.36-0.2s-0.18-0.19-0.23-0.32
				s-0.08-0.27-0.08-0.43c0-0.19,0.04-0.35,0.12-0.49s0.19-0.25,0.33-0.35s0.32-0.16,0.53-0.21c0.21-0.05,0.44-0.07,0.7-0.07h0.46
				v-0.26c0-0.13-0.01-0.24-0.04-0.34c-0.03-0.1-0.07-0.18-0.13-0.25c-0.06-0.07-0.14-0.11-0.24-0.15c-0.1-0.03-0.22-0.05-0.36-0.05
				c-0.15,0-0.29,0.02-0.41,0.05c-0.12,0.04-0.23,0.08-0.32,0.12s-0.17,0.08-0.23,0.12c-0.06,0.04-0.11,0.05-0.14,0.05
				c-0.02,0-0.04,0-0.05-0.01c-0.01-0.01-0.03-0.02-0.04-0.04c-0.01-0.02-0.02-0.05-0.02-0.08c0-0.03-0.01-0.07-0.01-0.1
				c0-0.06,0-0.11,0.01-0.15c0.01-0.04,0.03-0.07,0.06-0.1c0.03-0.03,0.09-0.07,0.17-0.11c0.08-0.04,0.18-0.08,0.28-0.12
				c0.11-0.04,0.22-0.07,0.35-0.09c0.13-0.02,0.25-0.04,0.38-0.04c0.24,0,0.44,0.03,0.61,0.08c0.17,0.05,0.3,0.13,0.41,0.24
				c0.1,0.11,0.18,0.24,0.23,0.39c0.05,0.16,0.07,0.34,0.07,0.55V29.95z M31.73,28.42h-0.52c-0.17,0-0.31,0.01-0.44,0.04
				c-0.12,0.03-0.23,0.07-0.31,0.13c-0.08,0.06-0.14,0.12-0.18,0.2c-0.04,0.08-0.06,0.17-0.06,0.27c0,0.17,0.06,0.31,0.17,0.41
				c0.11,0.1,0.26,0.15,0.46,0.15c0.16,0,0.31-0.04,0.45-0.12c0.14-0.08,0.28-0.21,0.43-0.37V28.42z"/>
			<path class="st3" d="M36.73,28.23c0,0.29-0.03,0.55-0.09,0.78c-0.06,0.23-0.16,0.43-0.28,0.59c-0.12,0.16-0.27,0.29-0.45,0.37
				c-0.18,0.09-0.38,0.13-0.61,0.13c-0.11,0-0.2-0.01-0.3-0.03c-0.09-0.02-0.18-0.06-0.27-0.1s-0.17-0.11-0.26-0.18
				c-0.09-0.07-0.18-0.16-0.27-0.26v0.41c0,0.02,0,0.04-0.01,0.05c-0.01,0.01-0.03,0.03-0.05,0.04c-0.02,0.01-0.05,0.02-0.08,0.02
				c-0.03,0-0.08,0.01-0.13,0.01c-0.05,0-0.09,0-0.13-0.01s-0.06-0.01-0.09-0.02c-0.02-0.01-0.04-0.02-0.04-0.04
				c-0.01-0.01-0.01-0.03-0.01-0.05v-4.96c0-0.02,0-0.04,0.01-0.05c0.01-0.01,0.02-0.03,0.05-0.04c0.02-0.01,0.06-0.02,0.09-0.02
				s0.09-0.01,0.15-0.01c0.06,0,0.11,0,0.15,0.01c0.04,0,0.07,0.01,0.09,0.02c0.02,0.01,0.04,0.02,0.05,0.04
				c0.01,0.01,0.01,0.03,0.01,0.05v2c0.1-0.1,0.19-0.19,0.29-0.26s0.18-0.13,0.27-0.17c0.09-0.04,0.18-0.07,0.27-0.09
				c0.09-0.02,0.18-0.03,0.28-0.03c0.24,0,0.45,0.05,0.62,0.14s0.31,0.23,0.42,0.39c0.11,0.16,0.19,0.35,0.24,0.57
				S36.73,27.99,36.73,28.23z M36.09,28.3c0-0.17-0.01-0.34-0.04-0.5s-0.07-0.3-0.14-0.43c-0.06-0.12-0.15-0.22-0.26-0.3
				c-0.11-0.08-0.24-0.11-0.4-0.11c-0.08,0-0.16,0.01-0.24,0.03c-0.08,0.02-0.16,0.06-0.24,0.11c-0.08,0.05-0.16,0.12-0.25,0.2
				c-0.09,0.08-0.18,0.18-0.27,0.31v1.33c0.17,0.21,0.33,0.36,0.49,0.47c0.15,0.11,0.31,0.16,0.48,0.16c0.15,0,0.29-0.04,0.4-0.11
				c0.11-0.07,0.2-0.17,0.27-0.3c0.07-0.12,0.12-0.26,0.15-0.41C36.08,28.61,36.09,28.46,36.09,28.3z"/>
			<path class="st3" d="M38.45,29.94c0,0.02,0,0.04-0.01,0.05s-0.03,0.03-0.05,0.04c-0.02,0.01-0.05,0.02-0.09,0.02
				c-0.04,0-0.09,0.01-0.15,0.01c-0.06,0-0.11,0-0.15-0.01c-0.04,0-0.07-0.01-0.09-0.02c-0.02-0.01-0.04-0.02-0.05-0.04
				c-0.01-0.01-0.01-0.03-0.01-0.05v-4.96c0-0.02,0-0.04,0.01-0.05c0.01-0.01,0.02-0.03,0.05-0.04c0.02-0.01,0.06-0.02,0.09-0.02
				c0.04,0,0.09-0.01,0.15-0.01c0.06,0,0.11,0,0.15,0.01c0.04,0,0.07,0.01,0.09,0.02c0.02,0.01,0.04,0.02,0.05,0.04
				c0.01,0.01,0.01,0.03,0.01,0.05V29.94z"/>
			<path class="st3" d="M40.46,25.47c0,0.14-0.03,0.24-0.08,0.29c-0.05,0.05-0.15,0.08-0.3,0.08c-0.14,0-0.24-0.03-0.3-0.08
				c-0.05-0.05-0.08-0.15-0.08-0.29c0-0.14,0.03-0.24,0.08-0.29s0.15-0.08,0.3-0.08c0.14,0,0.24,0.03,0.3,0.08
				C40.43,25.24,40.46,25.33,40.46,25.47z M40.39,29.94c0,0.02,0,0.04-0.01,0.05c-0.01,0.01-0.03,0.03-0.05,0.04
				c-0.02,0.01-0.05,0.02-0.09,0.02c-0.04,0-0.09,0.01-0.15,0.01c-0.06,0-0.11,0-0.15-0.01c-0.04,0-0.07-0.01-0.09-0.02
				c-0.02-0.01-0.04-0.02-0.05-0.04c-0.01-0.01-0.01-0.03-0.01-0.05V26.6c0-0.02,0-0.03,0.01-0.05c0.01-0.01,0.02-0.03,0.05-0.04
				c0.02-0.01,0.06-0.02,0.09-0.02c0.04,0,0.09-0.01,0.15-0.01c0.06,0,0.11,0,0.15,0.01c0.04,0,0.07,0.01,0.09,0.02
				c0.02,0.01,0.04,0.02,0.05,0.04c0.01,0.01,0.01,0.03,0.01,0.05V29.94z"/>
			<path class="st3" d="M44.59,29.94c0,0.02,0,0.04-0.01,0.05s-0.03,0.03-0.05,0.04c-0.02,0.01-0.05,0.02-0.09,0.02
				c-0.04,0-0.09,0.01-0.15,0.01c-0.06,0-0.11,0-0.15-0.01c-0.04,0-0.07-0.01-0.09-0.02c-0.02-0.01-0.04-0.02-0.05-0.04
				s-0.01-0.03-0.01-0.05v-1.96c0-0.19-0.01-0.34-0.04-0.46c-0.03-0.12-0.07-0.22-0.13-0.3c-0.06-0.08-0.13-0.15-0.22-0.19
				c-0.09-0.04-0.19-0.07-0.31-0.07c-0.15,0-0.31,0.05-0.46,0.16s-0.31,0.27-0.48,0.48v2.33c0,0.02,0,0.04-0.01,0.05
				s-0.03,0.03-0.05,0.04c-0.02,0.01-0.05,0.02-0.09,0.02c-0.04,0-0.09,0.01-0.15,0.01c-0.06,0-0.11,0-0.15-0.01
				c-0.04,0-0.07-0.01-0.09-0.02c-0.02-0.01-0.04-0.02-0.05-0.04c-0.01-0.01-0.01-0.03-0.01-0.05V26.6c0-0.02,0-0.04,0.01-0.05
				c0.01-0.01,0.02-0.03,0.04-0.04c0.02-0.01,0.05-0.02,0.09-0.02c0.03,0,0.08-0.01,0.14-0.01c0.05,0,0.1,0,0.14,0.01
				c0.04,0,0.06,0.01,0.08,0.02c0.02,0.01,0.03,0.02,0.04,0.04c0.01,0.01,0.01,0.03,0.01,0.05v0.44c0.19-0.21,0.38-0.36,0.56-0.46
				c0.19-0.1,0.38-0.15,0.57-0.15c0.22,0,0.41,0.04,0.56,0.11c0.15,0.08,0.28,0.18,0.37,0.3c0.09,0.13,0.16,0.27,0.2,0.44
				c0.04,0.17,0.06,0.37,0.06,0.61V29.94z"/>
			<path class="st3" d="M48.68,26.76c0,0.09-0.01,0.15-0.04,0.19S48.6,27,48.56,27h-0.48c0.09,0.09,0.15,0.19,0.18,0.29
				c0.03,0.11,0.05,0.22,0.05,0.34c0,0.19-0.03,0.36-0.09,0.51c-0.06,0.15-0.15,0.27-0.27,0.38c-0.12,0.1-0.25,0.18-0.41,0.24
				c-0.16,0.05-0.33,0.08-0.53,0.08c-0.14,0-0.27-0.02-0.39-0.05s-0.22-0.08-0.28-0.14c-0.04,0.04-0.08,0.1-0.11,0.15
				c-0.03,0.06-0.04,0.12-0.04,0.2c0,0.09,0.04,0.16,0.12,0.22s0.19,0.09,0.32,0.09l0.87,0.04c0.17,0,0.32,0.03,0.46,0.07
				c0.14,0.04,0.26,0.1,0.36,0.17c0.1,0.08,0.18,0.17,0.24,0.28c0.06,0.11,0.09,0.24,0.09,0.38c0,0.15-0.03,0.3-0.1,0.44
				c-0.06,0.14-0.16,0.26-0.3,0.37c-0.13,0.11-0.3,0.19-0.51,0.25c-0.21,0.06-0.45,0.09-0.73,0.09c-0.27,0-0.5-0.02-0.69-0.07
				c-0.19-0.05-0.34-0.11-0.47-0.19c-0.12-0.08-0.21-0.17-0.26-0.28c-0.05-0.11-0.08-0.23-0.08-0.36c0-0.08,0.01-0.16,0.03-0.24
				c0.02-0.08,0.05-0.15,0.09-0.22s0.09-0.14,0.15-0.2c0.06-0.06,0.13-0.13,0.21-0.19c-0.12-0.06-0.21-0.14-0.27-0.23
				c-0.06-0.09-0.09-0.2-0.09-0.3c0-0.15,0.03-0.29,0.09-0.4c0.06-0.12,0.14-0.23,0.23-0.32c-0.08-0.09-0.14-0.2-0.18-0.31
				c-0.04-0.12-0.07-0.25-0.07-0.42c0-0.19,0.03-0.36,0.1-0.51c0.06-0.15,0.15-0.28,0.27-0.38s0.25-0.18,0.41-0.24
				c0.16-0.06,0.33-0.08,0.52-0.08c0.1,0,0.2,0.01,0.28,0.02c0.09,0.01,0.17,0.03,0.25,0.05h1.01c0.04,0,0.07,0.02,0.09,0.06
				C48.67,26.61,48.68,26.67,48.68,26.76z M48.04,30.28c0-0.14-0.06-0.25-0.18-0.33c-0.12-0.08-0.28-0.12-0.48-0.12l-0.86-0.03
				c-0.08,0.06-0.14,0.12-0.19,0.18c-0.05,0.06-0.09,0.11-0.12,0.16c-0.03,0.05-0.05,0.1-0.06,0.15c-0.01,0.05-0.02,0.1-0.02,0.15
				c0,0.16,0.08,0.28,0.24,0.37c0.16,0.08,0.39,0.12,0.68,0.12c0.19,0,0.34-0.02,0.47-0.05c0.12-0.04,0.23-0.08,0.3-0.14
				c0.08-0.06,0.13-0.13,0.17-0.2C48.02,30.45,48.04,30.37,48.04,30.28z M47.73,27.64c0-0.23-0.06-0.41-0.19-0.53
				c-0.12-0.13-0.3-0.19-0.53-0.19c-0.12,0-0.22,0.02-0.31,0.06c-0.09,0.04-0.16,0.09-0.22,0.16c-0.06,0.07-0.1,0.15-0.13,0.24
				c-0.03,0.09-0.04,0.18-0.04,0.28c0,0.22,0.06,0.39,0.19,0.52s0.3,0.19,0.53,0.19c0.12,0,0.23-0.02,0.32-0.06s0.16-0.09,0.22-0.16
				c0.06-0.07,0.1-0.15,0.13-0.24C47.71,27.82,47.73,27.73,47.73,27.64z"/>
			<path class="st3" d="M54.59,26.64c0,0.24-0.04,0.46-0.12,0.65c-0.08,0.19-0.19,0.36-0.34,0.49c-0.15,0.14-0.33,0.24-0.54,0.32
				s-0.47,0.11-0.77,0.11h-0.55v1.73c0,0.02-0.01,0.04-0.02,0.05s-0.03,0.03-0.05,0.04c-0.02,0.01-0.06,0.02-0.1,0.02
				c-0.04,0.01-0.09,0.01-0.15,0.01s-0.11,0-0.15-0.01c-0.04-0.01-0.07-0.01-0.1-0.02c-0.02-0.01-0.04-0.02-0.05-0.04
				s-0.01-0.03-0.01-0.05v-4.43c0-0.1,0.03-0.17,0.08-0.21c0.05-0.04,0.11-0.06,0.17-0.06h1.03c0.1,0,0.2,0,0.3,0.01
				c0.1,0.01,0.21,0.03,0.34,0.06c0.13,0.03,0.26,0.08,0.4,0.16c0.13,0.08,0.25,0.17,0.34,0.29c0.09,0.11,0.17,0.25,0.22,0.4
				C54.57,26.29,54.59,26.46,54.59,26.64z M53.92,26.69c0-0.2-0.04-0.36-0.11-0.49c-0.07-0.13-0.16-0.23-0.27-0.29
				s-0.22-0.11-0.33-0.12c-0.12-0.02-0.23-0.03-0.34-0.03h-0.59v1.93h0.58c0.19,0,0.35-0.02,0.48-0.07
				c0.13-0.05,0.23-0.12,0.32-0.21c0.09-0.09,0.15-0.19,0.2-0.32C53.9,26.97,53.92,26.84,53.92,26.69z"/>
			<path class="st3" d="M58.64,28.24c0,0.27-0.04,0.52-0.11,0.75c-0.07,0.23-0.18,0.43-0.32,0.59s-0.32,0.3-0.53,0.39
				c-0.21,0.09-0.46,0.14-0.74,0.14c-0.27,0-0.51-0.04-0.72-0.12c-0.2-0.08-0.37-0.2-0.51-0.36s-0.24-0.35-0.3-0.57
				s-0.1-0.48-0.1-0.76c0-0.27,0.04-0.52,0.11-0.75c0.07-0.23,0.18-0.43,0.32-0.59c0.14-0.17,0.32-0.29,0.53-0.39
				c0.21-0.09,0.46-0.14,0.75-0.14c0.27,0,0.51,0.04,0.72,0.12s0.37,0.2,0.51,0.36s0.24,0.35,0.31,0.57
				C58.61,27.71,58.64,27.96,58.64,28.24z M58.01,28.28c0-0.18-0.02-0.35-0.05-0.51c-0.03-0.16-0.09-0.3-0.17-0.42
				c-0.08-0.12-0.18-0.22-0.31-0.29c-0.13-0.07-0.3-0.11-0.49-0.11c-0.18,0-0.34,0.03-0.47,0.1c-0.13,0.06-0.24,0.16-0.32,0.27
				c-0.08,0.12-0.15,0.26-0.19,0.42s-0.06,0.34-0.06,0.53c0,0.18,0.02,0.36,0.05,0.52c0.03,0.16,0.09,0.3,0.17,0.42
				c0.08,0.12,0.18,0.22,0.32,0.29c0.13,0.07,0.3,0.11,0.49,0.11c0.18,0,0.34-0.03,0.47-0.1c0.13-0.06,0.24-0.15,0.33-0.27
				c0.08-0.12,0.15-0.25,0.19-0.42C57.99,28.65,58.01,28.47,58.01,28.28z"/>
			<path class="st3" d="M61.83,29.03c0,0.17-0.03,0.32-0.09,0.46c-0.06,0.13-0.15,0.25-0.27,0.34c-0.12,0.09-0.25,0.16-0.42,0.21
				c-0.16,0.05-0.34,0.07-0.53,0.07c-0.12,0-0.23-0.01-0.34-0.03c-0.11-0.02-0.2-0.04-0.29-0.07c-0.09-0.03-0.16-0.06-0.22-0.09
				c-0.06-0.03-0.1-0.06-0.13-0.08s-0.05-0.06-0.06-0.1c-0.01-0.04-0.02-0.11-0.02-0.18c0-0.05,0-0.09,0.01-0.12
				c0-0.03,0.01-0.06,0.02-0.08c0.01-0.02,0.02-0.03,0.03-0.04s0.03-0.01,0.05-0.01c0.03,0,0.07,0.02,0.12,0.05
				c0.05,0.03,0.12,0.07,0.2,0.11c0.08,0.04,0.17,0.08,0.28,0.11c0.11,0.03,0.23,0.05,0.37,0.05c0.1,0,0.2-0.01,0.28-0.03
				c0.08-0.02,0.16-0.05,0.22-0.1c0.06-0.04,0.11-0.1,0.14-0.17s0.05-0.15,0.05-0.24c0-0.09-0.02-0.17-0.07-0.24
				c-0.05-0.06-0.11-0.12-0.19-0.17c-0.08-0.05-0.17-0.09-0.27-0.13c-0.1-0.04-0.2-0.08-0.31-0.12c-0.11-0.04-0.21-0.09-0.31-0.14
				c-0.1-0.05-0.19-0.12-0.27-0.2c-0.08-0.08-0.14-0.17-0.19-0.27c-0.05-0.11-0.07-0.23-0.07-0.38c0-0.13,0.03-0.26,0.08-0.38
				c0.05-0.12,0.13-0.22,0.23-0.32s0.23-0.16,0.38-0.22c0.15-0.05,0.33-0.08,0.53-0.08c0.09,0,0.18,0.01,0.27,0.02
				c0.09,0.01,0.17,0.03,0.24,0.06c0.07,0.02,0.13,0.05,0.18,0.07c0.05,0.03,0.09,0.05,0.12,0.07c0.03,0.02,0.04,0.04,0.05,0.05
				c0.01,0.01,0.01,0.03,0.02,0.05c0,0.02,0.01,0.04,0.01,0.07c0,0.03,0.01,0.06,0.01,0.1c0,0.04,0,0.08-0.01,0.11
				c0,0.03-0.01,0.06-0.02,0.08c-0.01,0.02-0.02,0.03-0.03,0.04c-0.01,0.01-0.03,0.01-0.04,0.01c-0.02,0-0.05-0.01-0.1-0.04
				c-0.04-0.03-0.1-0.06-0.16-0.09c-0.07-0.03-0.15-0.06-0.24-0.09c-0.09-0.03-0.19-0.04-0.31-0.04c-0.1,0-0.2,0.01-0.27,0.04
				c-0.08,0.02-0.14,0.06-0.19,0.1c-0.05,0.04-0.09,0.09-0.12,0.15c-0.03,0.06-0.04,0.12-0.04,0.19c0,0.1,0.02,0.18,0.07,0.24
				c0.05,0.07,0.11,0.12,0.19,0.17c0.08,0.05,0.17,0.09,0.27,0.13c0.1,0.04,0.2,0.08,0.31,0.12c0.11,0.04,0.21,0.09,0.31,0.14
				c0.1,0.05,0.19,0.12,0.27,0.19s0.14,0.16,0.19,0.27C61.81,28.77,61.83,28.89,61.83,29.03z"/>
			<path class="st3" d="M65,29.03c0,0.17-0.03,0.32-0.09,0.46c-0.06,0.13-0.15,0.25-0.27,0.34c-0.12,0.09-0.25,0.16-0.42,0.21
				c-0.16,0.05-0.34,0.07-0.53,0.07c-0.12,0-0.23-0.01-0.34-0.03c-0.11-0.02-0.2-0.04-0.29-0.07c-0.09-0.03-0.16-0.06-0.22-0.09
				s-0.1-0.06-0.13-0.08s-0.05-0.06-0.06-0.1c-0.01-0.04-0.02-0.11-0.02-0.18c0-0.05,0-0.09,0.01-0.12c0-0.03,0.01-0.06,0.02-0.08
				c0.01-0.02,0.02-0.03,0.03-0.04s0.03-0.01,0.05-0.01c0.03,0,0.07,0.02,0.12,0.05c0.05,0.03,0.12,0.07,0.2,0.11
				c0.08,0.04,0.17,0.08,0.28,0.11c0.11,0.03,0.23,0.05,0.37,0.05c0.1,0,0.2-0.01,0.28-0.03s0.16-0.05,0.22-0.1
				c0.06-0.04,0.11-0.1,0.14-0.17c0.03-0.07,0.05-0.15,0.05-0.24c0-0.09-0.02-0.17-0.07-0.24c-0.05-0.06-0.11-0.12-0.19-0.17
				c-0.08-0.05-0.17-0.09-0.27-0.13c-0.1-0.04-0.2-0.08-0.31-0.12c-0.11-0.04-0.21-0.09-0.31-0.14c-0.1-0.05-0.19-0.12-0.27-0.2
				c-0.08-0.08-0.14-0.17-0.19-0.27c-0.05-0.11-0.07-0.23-0.07-0.38c0-0.13,0.03-0.26,0.08-0.38c0.05-0.12,0.13-0.22,0.23-0.32
				c0.1-0.09,0.23-0.16,0.38-0.22c0.15-0.05,0.33-0.08,0.53-0.08c0.09,0,0.18,0.01,0.27,0.02c0.09,0.01,0.17,0.03,0.24,0.06
				c0.07,0.02,0.13,0.05,0.18,0.07c0.05,0.03,0.09,0.05,0.12,0.07c0.03,0.02,0.04,0.04,0.05,0.05c0.01,0.01,0.01,0.03,0.02,0.05
				c0,0.02,0.01,0.04,0.01,0.07c0,0.03,0.01,0.06,0.01,0.1c0,0.04,0,0.08-0.01,0.11c0,0.03-0.01,0.06-0.02,0.08
				c-0.01,0.02-0.02,0.03-0.03,0.04c-0.01,0.01-0.03,0.01-0.04,0.01c-0.02,0-0.05-0.01-0.1-0.04c-0.04-0.03-0.1-0.06-0.16-0.09
				c-0.07-0.03-0.15-0.06-0.24-0.09c-0.09-0.03-0.19-0.04-0.31-0.04c-0.1,0-0.2,0.01-0.27,0.04c-0.08,0.02-0.14,0.06-0.19,0.1
				c-0.05,0.04-0.09,0.09-0.12,0.15c-0.03,0.06-0.04,0.12-0.04,0.19c0,0.1,0.02,0.18,0.07,0.24c0.05,0.07,0.11,0.12,0.19,0.17
				c0.08,0.05,0.17,0.09,0.27,0.13c0.1,0.04,0.2,0.08,0.31,0.12c0.11,0.04,0.21,0.09,0.31,0.14c0.1,0.05,0.19,0.12,0.27,0.19
				s0.14,0.16,0.19,0.27C64.97,28.77,65,28.89,65,29.03z"/>
			<path class="st3" d="M66.74,25.47c0,0.14-0.03,0.24-0.08,0.29s-0.15,0.08-0.3,0.08c-0.14,0-0.24-0.03-0.3-0.08
				c-0.05-0.05-0.08-0.15-0.08-0.29c0-0.14,0.03-0.24,0.08-0.29s0.15-0.08,0.3-0.08c0.14,0,0.24,0.03,0.3,0.08
				C66.72,25.24,66.74,25.33,66.74,25.47z M66.67,29.94c0,0.02,0,0.04-0.01,0.05c-0.01,0.01-0.03,0.03-0.05,0.04
				c-0.02,0.01-0.05,0.02-0.09,0.02s-0.09,0.01-0.15,0.01c-0.06,0-0.11,0-0.15-0.01c-0.04,0-0.07-0.01-0.09-0.02
				c-0.02-0.01-0.04-0.02-0.05-0.04s-0.01-0.03-0.01-0.05V26.6c0-0.02,0-0.03,0.01-0.05s0.02-0.03,0.05-0.04
				c0.02-0.01,0.06-0.02,0.09-0.02c0.04,0,0.09-0.01,0.15-0.01c0.06,0,0.11,0,0.15,0.01c0.04,0,0.07,0.01,0.09,0.02
				c0.02,0.01,0.04,0.02,0.05,0.04c0.01,0.01,0.01,0.03,0.01,0.05V29.94z"/>
			<path class="st3" d="M71.07,28.23c0,0.29-0.03,0.55-0.09,0.78c-0.06,0.23-0.16,0.43-0.28,0.59c-0.12,0.16-0.27,0.29-0.45,0.37
				c-0.18,0.09-0.38,0.13-0.61,0.13c-0.11,0-0.2-0.01-0.3-0.03c-0.09-0.02-0.18-0.06-0.27-0.1c-0.09-0.05-0.17-0.11-0.26-0.18
				c-0.09-0.07-0.18-0.16-0.27-0.26v0.41c0,0.02,0,0.04-0.01,0.05c-0.01,0.01-0.03,0.03-0.05,0.04c-0.02,0.01-0.05,0.02-0.08,0.02
				s-0.08,0.01-0.13,0.01c-0.05,0-0.09,0-0.13-0.01s-0.06-0.01-0.09-0.02c-0.02-0.01-0.04-0.02-0.04-0.04
				C68,29.98,68,29.96,68,29.94v-4.96c0-0.02,0-0.04,0.01-0.05c0.01-0.01,0.02-0.03,0.05-0.04c0.02-0.01,0.06-0.02,0.09-0.02
				s0.09-0.01,0.15-0.01c0.06,0,0.11,0,0.15,0.01c0.04,0,0.07,0.01,0.09,0.02c0.02,0.01,0.04,0.02,0.05,0.04
				c0.01,0.01,0.01,0.03,0.01,0.05v2c0.1-0.1,0.19-0.19,0.29-0.26c0.09-0.07,0.18-0.13,0.27-0.17c0.09-0.04,0.18-0.07,0.27-0.09
				c0.09-0.02,0.18-0.03,0.28-0.03c0.24,0,0.45,0.05,0.62,0.14c0.17,0.1,0.31,0.23,0.42,0.39c0.11,0.16,0.19,0.35,0.24,0.57
				S71.07,27.99,71.07,28.23z M70.43,28.3c0-0.17-0.01-0.34-0.04-0.5c-0.03-0.16-0.07-0.3-0.14-0.43c-0.06-0.12-0.15-0.22-0.26-0.3
				c-0.11-0.08-0.24-0.11-0.4-0.11c-0.08,0-0.16,0.01-0.24,0.03c-0.08,0.02-0.16,0.06-0.24,0.11c-0.08,0.05-0.16,0.12-0.25,0.2
				c-0.09,0.08-0.18,0.18-0.27,0.31v1.33c0.17,0.21,0.33,0.36,0.49,0.47c0.15,0.11,0.31,0.16,0.48,0.16c0.15,0,0.29-0.04,0.4-0.11
				c0.11-0.07,0.2-0.17,0.27-0.3c0.07-0.12,0.12-0.26,0.15-0.41C70.42,28.61,70.43,28.46,70.43,28.3z"/>
			<path class="st3" d="M72.86,25.47c0,0.14-0.03,0.24-0.08,0.29s-0.15,0.08-0.3,0.08c-0.14,0-0.24-0.03-0.29-0.08
				c-0.05-0.05-0.08-0.15-0.08-0.29c0-0.14,0.03-0.24,0.08-0.29s0.15-0.08,0.3-0.08c0.14,0,0.24,0.03,0.29,0.08
				C72.84,25.24,72.86,25.33,72.86,25.47z M72.79,29.94c0,0.02,0,0.04-0.01,0.05c-0.01,0.01-0.03,0.03-0.05,0.04
				c-0.02,0.01-0.05,0.02-0.09,0.02s-0.09,0.01-0.15,0.01c-0.06,0-0.11,0-0.15-0.01c-0.04,0-0.07-0.01-0.09-0.02
				c-0.02-0.01-0.04-0.02-0.05-0.04c-0.01-0.01-0.01-0.03-0.01-0.05V26.6c0-0.02,0-0.03,0.01-0.05c0.01-0.01,0.02-0.03,0.05-0.04
				c0.02-0.01,0.06-0.02,0.09-0.02c0.04,0,0.09-0.01,0.15-0.01c0.06,0,0.11,0,0.15,0.01c0.04,0,0.07,0.01,0.09,0.02
				c0.02,0.01,0.04,0.02,0.05,0.04c0.01,0.01,0.01,0.03,0.01,0.05V29.94z"/>
			<path class="st3" d="M74.73,29.94c0,0.02,0,0.04-0.01,0.05c-0.01,0.01-0.03,0.03-0.05,0.04c-0.02,0.01-0.05,0.02-0.09,0.02
				c-0.04,0-0.09,0.01-0.15,0.01c-0.06,0-0.11,0-0.15-0.01s-0.07-0.01-0.09-0.02c-0.02-0.01-0.04-0.02-0.05-0.04
				c-0.01-0.01-0.01-0.03-0.01-0.05v-4.96c0-0.02,0-0.04,0.01-0.05c0.01-0.01,0.02-0.03,0.05-0.04c0.02-0.01,0.06-0.02,0.09-0.02
				s0.09-0.01,0.15-0.01c0.06,0,0.11,0,0.15,0.01c0.04,0,0.07,0.01,0.09,0.02c0.02,0.01,0.04,0.02,0.05,0.04
				c0.01,0.01,0.01,0.03,0.01,0.05V29.94z"/>
			<path class="st3" d="M76.73,25.47c0,0.14-0.03,0.24-0.08,0.29s-0.15,0.08-0.3,0.08c-0.14,0-0.24-0.03-0.29-0.08
				c-0.05-0.05-0.08-0.15-0.08-0.29c0-0.14,0.03-0.24,0.08-0.29s0.15-0.08,0.3-0.08c0.14,0,0.24,0.03,0.29,0.08
				C76.71,25.24,76.73,25.33,76.73,25.47z M76.66,29.94c0,0.02,0,0.04-0.01,0.05c-0.01,0.01-0.03,0.03-0.05,0.04
				c-0.02,0.01-0.05,0.02-0.09,0.02c-0.04,0-0.09,0.01-0.15,0.01c-0.06,0-0.11,0-0.15-0.01c-0.04,0-0.07-0.01-0.09-0.02
				c-0.02-0.01-0.04-0.02-0.05-0.04c-0.01-0.01-0.01-0.03-0.01-0.05V26.6c0-0.02,0-0.03,0.01-0.05c0.01-0.01,0.02-0.03,0.05-0.04
				c0.02-0.01,0.06-0.02,0.09-0.02c0.04,0,0.09-0.01,0.15-0.01c0.06,0,0.11,0,0.15,0.01c0.04,0,0.07,0.01,0.09,0.02
				c0.02,0.01,0.04,0.02,0.05,0.04c0.01,0.01,0.01,0.03,0.01,0.05V29.94z"/>
			<path class="st3" d="M79.76,29.7c0,0.07,0,0.13-0.01,0.17c-0.01,0.04-0.02,0.07-0.04,0.09c-0.02,0.02-0.05,0.04-0.09,0.06
				c-0.04,0.02-0.08,0.03-0.14,0.04c-0.05,0.01-0.1,0.02-0.16,0.03c-0.06,0.01-0.11,0.01-0.17,0.01c-0.17,0-0.32-0.02-0.45-0.07
				c-0.12-0.05-0.23-0.12-0.3-0.21c-0.08-0.09-0.14-0.21-0.17-0.35c-0.04-0.14-0.05-0.31-0.05-0.5v-1.95H77.7
				c-0.04,0-0.07-0.02-0.09-0.06c-0.02-0.04-0.03-0.1-0.03-0.19c0-0.05,0-0.09,0.01-0.12c0.01-0.03,0.01-0.06,0.02-0.08
				c0.01-0.02,0.02-0.04,0.04-0.04c0.02-0.01,0.03-0.01,0.05-0.01h0.46v-0.79c0-0.02,0-0.03,0.01-0.05
				c0.01-0.01,0.02-0.03,0.05-0.04c0.02-0.01,0.05-0.02,0.09-0.02c0.04,0,0.09-0.01,0.15-0.01c0.06,0,0.11,0,0.15,0.01
				s0.07,0.01,0.09,0.02c0.02,0.01,0.04,0.02,0.05,0.04c0.01,0.01,0.01,0.03,0.01,0.05v0.79h0.86c0.02,0,0.04,0,0.05,0.01
				s0.03,0.02,0.04,0.04c0.01,0.02,0.02,0.05,0.02,0.08c0,0.03,0.01,0.07,0.01,0.12c0,0.09-0.01,0.15-0.03,0.19
				c-0.02,0.04-0.05,0.06-0.09,0.06h-0.86v1.86c0,0.23,0.03,0.4,0.1,0.52c0.07,0.12,0.19,0.18,0.37,0.18c0.06,0,0.11-0.01,0.15-0.02
				c0.04-0.01,0.08-0.02,0.12-0.04s0.06-0.02,0.09-0.04c0.02-0.01,0.05-0.02,0.07-0.02c0.01,0,0.02,0,0.04,0.01
				c0.01,0.01,0.02,0.02,0.03,0.04c0.01,0.02,0.01,0.04,0.02,0.07C79.76,29.62,79.76,29.65,79.76,29.7z"/>
			<path class="st3" d="M81.25,25.47c0,0.14-0.03,0.24-0.08,0.29c-0.05,0.05-0.15,0.08-0.3,0.08c-0.14,0-0.24-0.03-0.29-0.08
				c-0.05-0.05-0.08-0.15-0.08-0.29c0-0.14,0.03-0.24,0.08-0.29s0.15-0.08,0.3-0.08c0.14,0,0.24,0.03,0.29,0.08
				C81.22,25.24,81.25,25.33,81.25,25.47z M81.18,29.94c0,0.02,0,0.04-0.01,0.05c-0.01,0.01-0.03,0.03-0.05,0.04
				c-0.02,0.01-0.05,0.02-0.09,0.02c-0.04,0-0.09,0.01-0.15,0.01c-0.06,0-0.11,0-0.15-0.01s-0.07-0.01-0.09-0.02
				c-0.02-0.01-0.04-0.02-0.05-0.04c-0.01-0.01-0.01-0.03-0.01-0.05V26.6c0-0.02,0-0.03,0.01-0.05c0.01-0.01,0.02-0.03,0.05-0.04
				c0.02-0.01,0.06-0.02,0.09-0.02c0.04,0,0.09-0.01,0.15-0.01c0.06,0,0.11,0,0.15,0.01c0.04,0,0.07,0.01,0.09,0.02
				c0.02,0.01,0.04,0.02,0.05,0.04c0.01,0.01,0.01,0.03,0.01,0.05V29.94z"/>
			<path class="st0" d="M80.89,26.51c0.07,0,0.12,0.02,0.15,0.05c0.03,0.03,0.04,0.08,0.04,0.15v3.24c0,0.02,0,0.04-0.01,0.05
				c-0.01,0.01-0.03,0.03-0.05,0.04c-0.02,0.01-0.06,0.02-0.09,0.02s-0.09,0.01-0.14,0.01c-0.06,0-0.11,0-0.15-0.01
				s-0.07-0.01-0.09-0.02c-0.02-0.01-0.04-0.02-0.05-0.04c-0.01-0.01-0.01-0.03-0.01-0.05v-2.93h-1.73v1.86
				c0,0.23,0.03,0.4,0.1,0.52c0.07,0.12,0.19,0.18,0.37,0.18c0.06,0,0.11-0.01,0.15-0.02c0.04-0.01,0.08-0.02,0.12-0.04
				s0.06-0.02,0.09-0.04c0.02-0.01,0.05-0.02,0.07-0.02c0.01,0,0.02,0,0.04,0.01c0.01,0.01,0.02,0.02,0.03,0.04
				c0.01,0.02,0.01,0.04,0.02,0.07c0,0.03,0.01,0.07,0.01,0.11c0,0.07,0,0.13-0.01,0.17c-0.01,0.04-0.02,0.07-0.04,0.09
				c-0.02,0.02-0.05,0.04-0.09,0.06s-0.08,0.03-0.14,0.04c-0.05,0.01-0.1,0.02-0.16,0.03c-0.06,0.01-0.11,0.01-0.17,0.01
				c-0.17,0-0.32-0.02-0.45-0.07c-0.12-0.05-0.23-0.12-0.3-0.21c-0.08-0.09-0.14-0.21-0.17-0.35c-0.04-0.14-0.05-0.31-0.05-0.5
				v-1.95h-0.47c-0.04,0-0.07-0.02-0.09-0.06c-0.02-0.04-0.03-0.1-0.03-0.19c0-0.05,0-0.09,0.01-0.12c0.01-0.03,0.01-0.06,0.02-0.08
				s0.02-0.04,0.04-0.04c0.02-0.01,0.03-0.01,0.05-0.01h0.46v-0.79c0-0.02,0-0.03,0.01-0.05c0.01-0.01,0.02-0.03,0.05-0.04
				c0.02-0.01,0.05-0.02,0.09-0.02s0.09-0.01,0.15-0.01c0.06,0,0.11,0,0.15,0.01c0.04,0,0.07,0.01,0.09,0.02
				c0.02,0.01,0.04,0.02,0.05,0.04c0.01,0.01,0.01,0.03,0.01,0.05v0.79H80.89z M81.15,25.47c0,0.14-0.03,0.24-0.08,0.29
				c-0.05,0.05-0.15,0.08-0.3,0.08c-0.14,0-0.24-0.03-0.29-0.08c-0.05-0.05-0.08-0.15-0.08-0.29c0-0.14,0.03-0.24,0.08-0.29
				s0.15-0.08,0.3-0.08c0.14,0,0.24,0.03,0.29,0.08C81.13,25.24,81.15,25.33,81.15,25.47z"/>
			<path class="st3" d="M85.26,28.13c0,0.1-0.02,0.17-0.07,0.21c-0.05,0.04-0.1,0.06-0.17,0.06h-2.2c0,0.19,0.02,0.35,0.06,0.5
				c0.04,0.15,0.1,0.28,0.19,0.38c0.09,0.11,0.2,0.19,0.34,0.24c0.14,0.06,0.31,0.09,0.51,0.09c0.16,0,0.3-0.01,0.43-0.04
				c0.12-0.03,0.23-0.06,0.32-0.09c0.09-0.03,0.17-0.06,0.22-0.09c0.06-0.03,0.1-0.04,0.13-0.04c0.02,0,0.03,0,0.05,0.01
				c0.01,0.01,0.02,0.02,0.03,0.04c0.01,0.02,0.01,0.04,0.02,0.07c0,0.03,0.01,0.07,0.01,0.11c0,0.03,0,0.06,0,0.08
				c0,0.02-0.01,0.04-0.01,0.06c0,0.02-0.01,0.04-0.02,0.05c-0.01,0.01-0.02,0.03-0.03,0.04c-0.01,0.01-0.05,0.04-0.12,0.07
				c-0.07,0.03-0.15,0.06-0.26,0.09c-0.11,0.03-0.23,0.06-0.37,0.08c-0.14,0.02-0.29,0.04-0.45,0.04c-0.27,0-0.52-0.04-0.72-0.12
				c-0.21-0.08-0.38-0.19-0.52-0.34c-0.14-0.15-0.25-0.34-0.32-0.57c-0.07-0.23-0.11-0.49-0.11-0.79c0-0.29,0.04-0.54,0.11-0.77
				s0.18-0.42,0.32-0.58c0.14-0.16,0.31-0.28,0.51-0.37c0.2-0.09,0.42-0.13,0.66-0.13c0.26,0,0.49,0.04,0.67,0.13
				c0.18,0.08,0.34,0.2,0.45,0.34c0.12,0.14,0.21,0.31,0.26,0.5c0.06,0.19,0.08,0.4,0.08,0.61V28.13z M84.64,27.95
				c0.01-0.32-0.06-0.57-0.21-0.76c-0.15-0.18-0.37-0.27-0.67-0.27c-0.15,0-0.29,0.03-0.4,0.09c-0.11,0.06-0.21,0.13-0.29,0.23
				s-0.14,0.2-0.18,0.33c-0.04,0.13-0.07,0.26-0.07,0.39H84.64z"/>
			<path class="st3" d="M88.48,29.03c0,0.17-0.03,0.32-0.09,0.46c-0.06,0.13-0.15,0.25-0.27,0.34c-0.12,0.09-0.25,0.16-0.42,0.21
				c-0.16,0.05-0.34,0.07-0.53,0.07c-0.12,0-0.23-0.01-0.34-0.03c-0.11-0.02-0.2-0.04-0.29-0.07c-0.09-0.03-0.16-0.06-0.22-0.09
				c-0.06-0.03-0.1-0.06-0.13-0.08s-0.05-0.06-0.06-0.1c-0.01-0.04-0.02-0.11-0.02-0.18c0-0.05,0-0.09,0.01-0.12
				c0-0.03,0.01-0.06,0.02-0.08c0.01-0.02,0.02-0.03,0.03-0.04c0.01-0.01,0.03-0.01,0.05-0.01c0.03,0,0.07,0.02,0.12,0.05
				c0.05,0.03,0.12,0.07,0.2,0.11c0.08,0.04,0.17,0.08,0.28,0.11c0.11,0.03,0.23,0.05,0.37,0.05c0.1,0,0.2-0.01,0.28-0.03
				c0.08-0.02,0.16-0.05,0.22-0.1c0.06-0.04,0.11-0.1,0.14-0.17c0.03-0.07,0.05-0.15,0.05-0.24c0-0.09-0.02-0.17-0.07-0.24
				c-0.05-0.06-0.11-0.12-0.19-0.17c-0.08-0.05-0.17-0.09-0.27-0.13c-0.1-0.04-0.2-0.08-0.31-0.12c-0.11-0.04-0.21-0.09-0.31-0.14
				c-0.1-0.05-0.19-0.12-0.27-0.2c-0.08-0.08-0.14-0.17-0.19-0.27c-0.05-0.11-0.07-0.23-0.07-0.38c0-0.13,0.03-0.26,0.08-0.38
				c0.05-0.12,0.13-0.22,0.23-0.32c0.1-0.09,0.23-0.16,0.38-0.22c0.15-0.05,0.33-0.08,0.53-0.08c0.09,0,0.18,0.01,0.27,0.02
				c0.09,0.01,0.17,0.03,0.24,0.06c0.07,0.02,0.13,0.05,0.18,0.07c0.05,0.03,0.09,0.05,0.12,0.07c0.03,0.02,0.04,0.04,0.05,0.05
				c0.01,0.01,0.01,0.03,0.02,0.05c0,0.02,0.01,0.04,0.01,0.07c0,0.03,0.01,0.06,0.01,0.1c0,0.04,0,0.08-0.01,0.11
				c0,0.03-0.01,0.06-0.02,0.08c-0.01,0.02-0.02,0.03-0.03,0.04c-0.01,0.01-0.03,0.01-0.04,0.01c-0.02,0-0.05-0.01-0.1-0.04
				s-0.1-0.06-0.16-0.09c-0.07-0.03-0.15-0.06-0.24-0.09c-0.09-0.03-0.19-0.04-0.31-0.04c-0.1,0-0.2,0.01-0.27,0.04
				c-0.08,0.02-0.14,0.06-0.19,0.1c-0.05,0.04-0.09,0.09-0.12,0.15c-0.03,0.06-0.04,0.12-0.04,0.19c0,0.1,0.02,0.18,0.07,0.24
				c0.05,0.07,0.11,0.12,0.19,0.17c0.08,0.05,0.17,0.09,0.27,0.13s0.2,0.08,0.31,0.12c0.11,0.04,0.21,0.09,0.31,0.14
				c0.1,0.05,0.19,0.12,0.27,0.19c0.08,0.07,0.14,0.16,0.19,0.27C88.46,28.77,88.48,28.89,88.48,29.03z"/>
			<path class="st3" d="M94.2,29.77c0,0.04,0,0.08-0.01,0.12c0,0.03-0.01,0.06-0.03,0.08c-0.01,0.02-0.03,0.04-0.04,0.05
				s-0.03,0.01-0.05,0.01h-2.31c-0.06,0-0.11-0.02-0.16-0.06c-0.05-0.04-0.08-0.11-0.08-0.2v-4.28c0-0.1,0.03-0.16,0.08-0.2
				c0.05-0.04,0.1-0.06,0.16-0.06h2.28c0.02,0,0.04,0,0.05,0.01c0.02,0.01,0.03,0.03,0.04,0.05s0.02,0.05,0.02,0.08
				c0.01,0.03,0.01,0.07,0.01,0.12c0,0.04,0,0.08-0.01,0.12c-0.01,0.03-0.01,0.06-0.02,0.08s-0.02,0.04-0.04,0.05
				c-0.02,0.01-0.03,0.01-0.05,0.01h-1.88v1.51h1.61c0.02,0,0.04,0.01,0.05,0.02c0.02,0.01,0.03,0.03,0.04,0.05
				c0.01,0.02,0.02,0.05,0.02,0.08c0,0.03,0.01,0.08,0.01,0.12c0,0.04,0,0.08-0.01,0.12c0,0.03-0.01,0.06-0.02,0.08
				c-0.01,0.02-0.02,0.03-0.04,0.04c-0.02,0.01-0.03,0.01-0.05,0.01h-1.61v1.72h1.9c0.02,0,0.04,0,0.05,0.01
				c0.02,0.01,0.03,0.03,0.04,0.05c0.01,0.02,0.02,0.05,0.03,0.08C94.19,29.68,94.2,29.72,94.2,29.77z"/>
			<path class="st3" d="M98.23,29.94c0,0.02,0,0.04-0.01,0.05c-0.01,0.01-0.03,0.03-0.05,0.04c-0.02,0.01-0.05,0.02-0.09,0.02
				c-0.04,0-0.09,0.01-0.15,0.01c-0.06,0-0.11,0-0.15-0.01s-0.07-0.01-0.09-0.02c-0.02-0.01-0.04-0.02-0.05-0.04
				c-0.01-0.01-0.01-0.03-0.01-0.05v-1.96c0-0.19-0.01-0.34-0.04-0.46c-0.03-0.12-0.07-0.22-0.13-0.3
				c-0.06-0.08-0.13-0.15-0.22-0.19c-0.09-0.04-0.2-0.07-0.31-0.07c-0.15,0-0.31,0.05-0.46,0.16s-0.31,0.27-0.48,0.48v2.33
				c0,0.02,0,0.04-0.01,0.05s-0.03,0.03-0.05,0.04c-0.02,0.01-0.05,0.02-0.09,0.02c-0.04,0-0.09,0.01-0.15,0.01
				c-0.06,0-0.11,0-0.15-0.01s-0.07-0.01-0.09-0.02c-0.02-0.01-0.04-0.02-0.05-0.04c-0.01-0.01-0.01-0.03-0.01-0.05V26.6
				c0-0.02,0-0.04,0.01-0.05c0.01-0.01,0.02-0.03,0.04-0.04c0.02-0.01,0.05-0.02,0.09-0.02c0.03,0,0.08-0.01,0.14-0.01
				c0.05,0,0.1,0,0.14,0.01c0.04,0,0.06,0.01,0.08,0.02c0.02,0.01,0.03,0.02,0.04,0.04c0.01,0.01,0.01,0.03,0.01,0.05v0.44
				c0.19-0.21,0.38-0.36,0.56-0.46c0.19-0.1,0.38-0.15,0.57-0.15c0.22,0,0.41,0.04,0.56,0.11c0.15,0.08,0.28,0.18,0.37,0.3
				c0.09,0.13,0.16,0.27,0.2,0.44c0.04,0.17,0.06,0.37,0.06,0.61V29.94z"/>
			<path class="st3" d="M101.49,26.82c0,0.05,0,0.1,0,0.14c0,0.04-0.01,0.07-0.01,0.09s-0.02,0.04-0.03,0.05
				c-0.01,0.01-0.03,0.02-0.05,0.02c-0.02,0-0.04-0.01-0.07-0.02c-0.03-0.01-0.06-0.02-0.1-0.03c-0.04-0.01-0.08-0.02-0.12-0.03
				c-0.04-0.01-0.09-0.01-0.14-0.01c-0.06,0-0.12,0.01-0.18,0.04c-0.06,0.02-0.12,0.07-0.19,0.12c-0.07,0.06-0.13,0.13-0.21,0.23
				c-0.07,0.09-0.15,0.21-0.24,0.35v2.2c0,0.02,0,0.04-0.01,0.05c-0.01,0.01-0.03,0.03-0.05,0.04c-0.02,0.01-0.05,0.02-0.09,0.02
				s-0.09,0.01-0.15,0.01c-0.06,0-0.11,0-0.15-0.01c-0.04,0-0.07-0.01-0.09-0.02c-0.02-0.01-0.04-0.02-0.05-0.04
				c-0.01-0.01-0.01-0.03-0.01-0.05V26.6c0-0.02,0-0.04,0.01-0.05c0.01-0.01,0.02-0.03,0.04-0.04c0.02-0.01,0.05-0.02,0.09-0.02
				c0.03,0,0.08-0.01,0.14-0.01c0.05,0,0.1,0,0.14,0.01c0.04,0,0.06,0.01,0.08,0.02c0.02,0.01,0.03,0.02,0.04,0.04
				c0.01,0.01,0.01,0.03,0.01,0.05v0.49c0.09-0.13,0.18-0.24,0.26-0.33c0.08-0.08,0.16-0.15,0.23-0.2c0.07-0.05,0.14-0.08,0.21-0.1
				c0.07-0.02,0.14-0.03,0.21-0.03c0.03,0,0.07,0,0.11,0.01c0.04,0,0.08,0.01,0.13,0.02c0.04,0.01,0.08,0.02,0.12,0.03
				c0.04,0.01,0.06,0.02,0.08,0.04s0.02,0.02,0.03,0.04c0,0.01,0.01,0.03,0.01,0.04c0,0.02,0.01,0.04,0.01,0.08
				C101.49,26.72,101.49,26.77,101.49,26.82z"/>
			<path class="st3" d="M103.06,25.47c0,0.14-0.03,0.24-0.08,0.29s-0.15,0.08-0.3,0.08c-0.14,0-0.24-0.03-0.29-0.08
				c-0.05-0.05-0.08-0.15-0.08-0.29c0-0.14,0.03-0.24,0.08-0.29s0.15-0.08,0.3-0.08c0.14,0,0.24,0.03,0.29,0.08
				C103.04,25.24,103.06,25.33,103.06,25.47z M102.99,29.94c0,0.02,0,0.04-0.01,0.05c-0.01,0.01-0.03,0.03-0.05,0.04
				c-0.02,0.01-0.05,0.02-0.09,0.02s-0.09,0.01-0.15,0.01c-0.06,0-0.11,0-0.15-0.01c-0.04,0-0.07-0.01-0.09-0.02
				c-0.02-0.01-0.04-0.02-0.05-0.04c-0.01-0.01-0.01-0.03-0.01-0.05V26.6c0-0.02,0-0.03,0.01-0.05c0.01-0.01,0.02-0.03,0.05-0.04
				c0.02-0.01,0.06-0.02,0.09-0.02c0.04,0,0.09-0.01,0.15-0.01c0.06,0,0.11,0,0.15,0.01c0.04,0,0.07,0.01,0.09,0.02
				c0.02,0.01,0.04,0.02,0.05,0.04c0.01,0.01,0.01,0.03,0.01,0.05V29.94z"/>
			<path class="st3" d="M106.72,29.44c0,0.04,0,0.08,0,0.11c0,0.03-0.01,0.06-0.01,0.08c-0.01,0.02-0.01,0.04-0.02,0.06
				c-0.01,0.02-0.03,0.04-0.06,0.07c-0.03,0.03-0.08,0.07-0.16,0.11c-0.07,0.05-0.16,0.09-0.25,0.12c-0.09,0.04-0.19,0.06-0.3,0.09
				c-0.11,0.02-0.22,0.03-0.34,0.03c-0.24,0-0.45-0.04-0.64-0.12s-0.34-0.19-0.47-0.35c-0.12-0.15-0.22-0.34-0.29-0.56
				c-0.07-0.22-0.1-0.48-0.1-0.77c0-0.33,0.04-0.61,0.12-0.85c0.08-0.24,0.19-0.43,0.33-0.58s0.3-0.26,0.49-0.34
				c0.19-0.07,0.39-0.11,0.61-0.11c0.11,0,0.21,0.01,0.31,0.03c0.1,0.02,0.19,0.05,0.28,0.08c0.08,0.03,0.16,0.07,0.22,0.11
				c0.07,0.04,0.11,0.08,0.14,0.11s0.05,0.05,0.06,0.07c0.01,0.02,0.02,0.04,0.03,0.06c0.01,0.02,0.01,0.05,0.01,0.08
				c0,0.03,0,0.07,0,0.11c0,0.1-0.01,0.16-0.03,0.2c-0.02,0.04-0.05,0.06-0.08,0.06c-0.04,0-0.08-0.02-0.13-0.06
				c-0.05-0.04-0.11-0.09-0.18-0.14c-0.07-0.05-0.16-0.09-0.27-0.14c-0.11-0.04-0.23-0.06-0.37-0.06c-0.29,0-0.52,0.11-0.68,0.34
				c-0.16,0.23-0.24,0.56-0.24,0.99c0,0.22,0.02,0.4,0.06,0.57c0.04,0.16,0.1,0.3,0.18,0.41c0.08,0.11,0.18,0.19,0.29,0.24
				c0.12,0.05,0.25,0.08,0.4,0.08c0.14,0,0.26-0.02,0.37-0.07c0.11-0.04,0.2-0.09,0.28-0.15c0.08-0.05,0.14-0.1,0.2-0.15
				c0.05-0.04,0.09-0.06,0.12-0.06c0.02,0,0.03,0,0.04,0.01c0.01,0.01,0.02,0.03,0.03,0.05c0.01,0.02,0.01,0.05,0.02,0.09
				C106.72,29.34,106.72,29.39,106.72,29.44z"/>
			<path class="st3" d="M110.6,29.94c0,0.02,0,0.04-0.01,0.05c-0.01,0.01-0.03,0.03-0.05,0.04c-0.02,0.01-0.05,0.02-0.09,0.02
				c-0.04,0-0.09,0.01-0.15,0.01c-0.06,0-0.11,0-0.15-0.01s-0.07-0.01-0.09-0.02c-0.02-0.01-0.04-0.02-0.05-0.04
				c-0.01-0.01-0.01-0.03-0.01-0.05v-1.96c0-0.19-0.01-0.34-0.04-0.46c-0.03-0.12-0.07-0.22-0.13-0.3s-0.13-0.15-0.22-0.19
				c-0.09-0.04-0.2-0.07-0.31-0.07c-0.15,0-0.31,0.05-0.46,0.16c-0.15,0.11-0.31,0.27-0.48,0.48v2.33c0,0.02,0,0.04-0.01,0.05
				c-0.01,0.01-0.03,0.03-0.05,0.04c-0.02,0.01-0.05,0.02-0.09,0.02c-0.04,0-0.09,0.01-0.15,0.01c-0.06,0-0.11,0-0.15-0.01
				s-0.07-0.01-0.09-0.02c-0.02-0.01-0.04-0.02-0.05-0.04c-0.01-0.01-0.01-0.03-0.01-0.05v-4.96c0-0.02,0-0.04,0.01-0.05
				c0.01-0.01,0.02-0.03,0.05-0.04c0.02-0.01,0.06-0.02,0.09-0.02s0.09-0.01,0.15-0.01c0.06,0,0.11,0,0.15,0.01
				c0.04,0,0.07,0.01,0.09,0.02c0.02,0.01,0.04,0.02,0.05,0.04c0.01,0.01,0.01,0.03,0.01,0.05v2c0.18-0.19,0.35-0.32,0.53-0.41
				c0.18-0.09,0.36-0.14,0.54-0.14c0.22,0,0.41,0.04,0.56,0.11c0.15,0.08,0.28,0.18,0.37,0.3c0.09,0.13,0.16,0.27,0.2,0.44
				c0.04,0.17,0.06,0.37,0.06,0.61V29.94z"/>
			<path class="st3" d="M112.59,25.47c0,0.14-0.03,0.24-0.08,0.29s-0.15,0.08-0.3,0.08c-0.14,0-0.24-0.03-0.29-0.08
				c-0.05-0.05-0.08-0.15-0.08-0.29c0-0.14,0.03-0.24,0.08-0.29s0.15-0.08,0.3-0.08c0.14,0,0.24,0.03,0.29,0.08
				C112.56,25.24,112.59,25.33,112.59,25.47z M112.52,29.94c0,0.02,0,0.04-0.01,0.05c-0.01,0.01-0.03,0.03-0.05,0.04
				c-0.02,0.01-0.05,0.02-0.09,0.02c-0.04,0-0.09,0.01-0.15,0.01c-0.06,0-0.11,0-0.15-0.01c-0.04,0-0.07-0.01-0.09-0.02
				c-0.02-0.01-0.04-0.02-0.05-0.04c-0.01-0.01-0.01-0.03-0.01-0.05V26.6c0-0.02,0-0.03,0.01-0.05c0.01-0.01,0.02-0.03,0.05-0.04
				c0.02-0.01,0.06-0.02,0.09-0.02c0.04,0,0.09-0.01,0.15-0.01c0.06,0,0.11,0,0.15,0.01c0.04,0,0.07,0.01,0.09,0.02
				c0.02,0.01,0.04,0.02,0.05,0.04c0.01,0.01,0.01,0.03,0.01,0.05V29.94z"/>
			<path class="st3" d="M116.72,29.94c0,0.02,0,0.04-0.01,0.05c-0.01,0.01-0.03,0.03-0.05,0.04c-0.02,0.01-0.05,0.02-0.09,0.02
				s-0.09,0.01-0.15,0.01c-0.06,0-0.11,0-0.15-0.01c-0.04,0-0.07-0.01-0.09-0.02c-0.02-0.01-0.04-0.02-0.05-0.04
				c-0.01-0.01-0.01-0.03-0.01-0.05v-1.96c0-0.19-0.01-0.34-0.04-0.46c-0.03-0.12-0.07-0.22-0.13-0.3s-0.13-0.15-0.22-0.19
				c-0.09-0.04-0.19-0.07-0.31-0.07c-0.15,0-0.31,0.05-0.46,0.16c-0.15,0.11-0.31,0.27-0.48,0.48v2.33c0,0.02,0,0.04-0.01,0.05
				c-0.01,0.01-0.03,0.03-0.05,0.04c-0.02,0.01-0.05,0.02-0.09,0.02c-0.04,0-0.09,0.01-0.15,0.01c-0.06,0-0.11,0-0.15-0.01
				s-0.07-0.01-0.09-0.02c-0.02-0.01-0.04-0.02-0.05-0.04c-0.01-0.01-0.01-0.03-0.01-0.05V26.6c0-0.02,0-0.04,0.01-0.05
				c0.01-0.01,0.02-0.03,0.04-0.04c0.02-0.01,0.05-0.02,0.09-0.02c0.03,0,0.08-0.01,0.14-0.01c0.05,0,0.1,0,0.14,0.01
				c0.04,0,0.06,0.01,0.08,0.02c0.02,0.01,0.03,0.02,0.04,0.04c0.01,0.01,0.01,0.03,0.01,0.05v0.44c0.19-0.21,0.38-0.36,0.56-0.46
				c0.19-0.1,0.38-0.15,0.57-0.15c0.22,0,0.41,0.04,0.56,0.11c0.15,0.08,0.28,0.18,0.37,0.3c0.09,0.13,0.16,0.27,0.2,0.44
				c0.04,0.17,0.06,0.37,0.06,0.61V29.94z"/>
			<path class="st3" d="M120.81,26.76c0,0.09-0.01,0.15-0.04,0.19c-0.02,0.04-0.05,0.06-0.09,0.06h-0.48
				c0.09,0.09,0.15,0.19,0.18,0.29c0.03,0.11,0.05,0.22,0.05,0.34c0,0.19-0.03,0.36-0.09,0.51c-0.06,0.15-0.15,0.27-0.27,0.38
				c-0.12,0.1-0.25,0.18-0.41,0.24c-0.16,0.05-0.33,0.08-0.53,0.08c-0.14,0-0.27-0.02-0.39-0.05c-0.12-0.04-0.22-0.08-0.28-0.14
				c-0.04,0.04-0.08,0.1-0.11,0.15s-0.04,0.12-0.04,0.2c0,0.09,0.04,0.16,0.12,0.22c0.08,0.06,0.19,0.09,0.32,0.09l0.87,0.04
				c0.17,0,0.32,0.03,0.46,0.07c0.14,0.04,0.26,0.1,0.36,0.17c0.1,0.08,0.18,0.17,0.24,0.28c0.06,0.11,0.09,0.24,0.09,0.38
				c0,0.15-0.03,0.3-0.1,0.44c-0.06,0.14-0.16,0.26-0.3,0.37c-0.13,0.11-0.3,0.19-0.51,0.25c-0.21,0.06-0.45,0.09-0.73,0.09
				c-0.27,0-0.5-0.02-0.69-0.07c-0.19-0.05-0.34-0.11-0.47-0.19c-0.12-0.08-0.21-0.17-0.26-0.28c-0.05-0.11-0.08-0.23-0.08-0.36
				c0-0.08,0.01-0.16,0.03-0.24c0.02-0.08,0.05-0.15,0.09-0.22c0.04-0.07,0.09-0.14,0.15-0.2c0.06-0.06,0.13-0.13,0.21-0.19
				c-0.12-0.06-0.21-0.14-0.27-0.23c-0.06-0.09-0.09-0.2-0.09-0.3c0-0.15,0.03-0.29,0.09-0.4c0.06-0.12,0.14-0.23,0.23-0.32
				c-0.08-0.09-0.14-0.2-0.18-0.31c-0.04-0.12-0.07-0.25-0.07-0.42c0-0.19,0.03-0.36,0.1-0.51s0.15-0.28,0.27-0.38
				c0.11-0.1,0.25-0.18,0.41-0.24c0.16-0.06,0.33-0.08,0.52-0.08c0.1,0,0.2,0.01,0.28,0.02c0.09,0.01,0.17,0.03,0.25,0.05h1.01
				c0.04,0,0.07,0.02,0.09,0.06C120.8,26.61,120.81,26.67,120.81,26.76z M120.16,30.28c0-0.14-0.06-0.25-0.18-0.33
				c-0.12-0.08-0.28-0.12-0.48-0.12l-0.86-0.03c-0.08,0.06-0.14,0.12-0.19,0.18c-0.05,0.06-0.09,0.11-0.12,0.16
				c-0.03,0.05-0.05,0.1-0.06,0.15c-0.01,0.05-0.02,0.1-0.02,0.15c0,0.16,0.08,0.28,0.24,0.37c0.16,0.08,0.39,0.12,0.68,0.12
				c0.19,0,0.34-0.02,0.47-0.05c0.12-0.04,0.23-0.08,0.3-0.14c0.08-0.06,0.13-0.13,0.17-0.2C120.15,30.45,120.16,30.37,120.16,30.28
				z M119.86,27.64c0-0.23-0.06-0.41-0.19-0.53c-0.13-0.13-0.3-0.19-0.53-0.19c-0.12,0-0.22,0.02-0.31,0.06
				c-0.09,0.04-0.16,0.09-0.22,0.16c-0.06,0.07-0.1,0.15-0.13,0.24c-0.03,0.09-0.04,0.18-0.04,0.28c0,0.22,0.06,0.39,0.19,0.52
				c0.12,0.13,0.3,0.19,0.53,0.19c0.12,0,0.23-0.02,0.32-0.06c0.09-0.04,0.16-0.09,0.22-0.16c0.06-0.07,0.1-0.15,0.13-0.24
				C119.84,27.82,119.86,27.73,119.86,27.64z"/>
			<path class="st3" d="M126.26,29.76c0,0.05,0,0.09-0.01,0.12c0,0.03-0.01,0.06-0.02,0.09c-0.01,0.02-0.02,0.04-0.04,0.05
				c-0.02,0.01-0.04,0.02-0.06,0.02h-2.12c-0.06,0-0.11-0.02-0.16-0.06c-0.05-0.04-0.08-0.11-0.08-0.2v-4.45
				c0-0.02,0-0.04,0.01-0.05c0.01-0.01,0.03-0.03,0.05-0.04c0.02-0.01,0.06-0.02,0.1-0.02c0.04-0.01,0.09-0.01,0.15-0.01
				c0.06,0,0.11,0,0.15,0.01c0.04,0.01,0.07,0.01,0.1,0.02s0.04,0.02,0.05,0.04c0.01,0.01,0.01,0.03,0.01,0.05v4.15h1.72
				c0.02,0,0.04,0.01,0.06,0.02c0.02,0.01,0.03,0.03,0.04,0.05c0.01,0.02,0.02,0.05,0.02,0.08S126.26,29.71,126.26,29.76z"/>
			<path class="st3" d="M127.77,25.47c0,0.14-0.03,0.24-0.08,0.29c-0.05,0.05-0.15,0.08-0.3,0.08c-0.14,0-0.24-0.03-0.29-0.08
				c-0.05-0.05-0.08-0.15-0.08-0.29c0-0.14,0.03-0.24,0.08-0.29s0.15-0.08,0.3-0.08c0.14,0,0.24,0.03,0.29,0.08
				C127.74,25.24,127.77,25.33,127.77,25.47z M127.7,29.94c0,0.02,0,0.04-0.01,0.05s-0.03,0.03-0.05,0.04
				c-0.02,0.01-0.05,0.02-0.09,0.02c-0.04,0-0.09,0.01-0.15,0.01c-0.06,0-0.11,0-0.15-0.01c-0.04,0-0.07-0.01-0.09-0.02
				c-0.02-0.01-0.04-0.02-0.05-0.04c-0.01-0.01-0.01-0.03-0.01-0.05V26.6c0-0.02,0-0.03,0.01-0.05c0.01-0.01,0.02-0.03,0.05-0.04
				c0.02-0.01,0.06-0.02,0.09-0.02c0.04,0,0.09-0.01,0.15-0.01c0.06,0,0.11,0,0.15,0.01c0.04,0,0.07,0.01,0.09,0.02
				c0.02,0.01,0.04,0.02,0.05,0.04s0.01,0.03,0.01,0.05V29.94z"/>
			<path class="st3" d="M130.85,25.23c0,0.05,0,0.08-0.01,0.11c0,0.03-0.01,0.05-0.02,0.07c-0.01,0.02-0.01,0.03-0.02,0.04
				c-0.01,0.01-0.02,0.01-0.04,0.01c-0.02,0-0.04-0.01-0.07-0.02c-0.03-0.01-0.06-0.02-0.09-0.04c-0.04-0.01-0.08-0.03-0.13-0.04
				c-0.05-0.01-0.11-0.02-0.18-0.02c-0.09,0-0.17,0.01-0.23,0.04s-0.12,0.08-0.16,0.14c-0.04,0.06-0.07,0.14-0.09,0.24
				c-0.02,0.1-0.03,0.22-0.03,0.37v0.36h0.75c0.02,0,0.04,0,0.05,0.01c0.01,0.01,0.03,0.02,0.04,0.04c0.01,0.02,0.02,0.05,0.03,0.08
				c0.01,0.03,0.01,0.07,0.01,0.12c0,0.09-0.01,0.15-0.03,0.19c-0.02,0.04-0.05,0.06-0.09,0.06h-0.75v2.93c0,0.02,0,0.04-0.01,0.05
				c-0.01,0.01-0.03,0.03-0.05,0.04c-0.02,0.01-0.06,0.02-0.09,0.02s-0.09,0.01-0.15,0.01c-0.06,0-0.11,0-0.15-0.01
				s-0.07-0.01-0.09-0.02c-0.02-0.01-0.04-0.02-0.05-0.04c-0.01-0.01-0.01-0.03-0.01-0.05v-2.93h-0.47c-0.04,0-0.07-0.02-0.09-0.06
				c-0.02-0.04-0.03-0.1-0.03-0.19c0-0.05,0-0.09,0.01-0.12c0-0.03,0.01-0.06,0.02-0.08c0.01-0.02,0.02-0.04,0.04-0.04
				s0.03-0.01,0.05-0.01h0.47v-0.35c0-0.23,0.02-0.43,0.06-0.6c0.04-0.17,0.11-0.3,0.2-0.41c0.09-0.11,0.2-0.18,0.34-0.24
				c0.13-0.05,0.29-0.08,0.48-0.08c0.09,0,0.17,0.01,0.25,0.02c0.08,0.02,0.14,0.03,0.19,0.05c0.04,0.02,0.07,0.04,0.09,0.05
				c0.01,0.01,0.03,0.03,0.04,0.06c0.01,0.02,0.02,0.05,0.02,0.09C130.85,25.14,130.85,25.18,130.85,25.23z"/>
			<path class="st3" d="M134.19,28.13c0,0.1-0.02,0.17-0.07,0.21c-0.05,0.04-0.1,0.06-0.17,0.06h-2.2c0,0.19,0.02,0.35,0.06,0.5
				c0.04,0.15,0.1,0.28,0.19,0.38c0.09,0.11,0.2,0.19,0.34,0.24c0.14,0.06,0.31,0.09,0.51,0.09c0.16,0,0.3-0.01,0.43-0.04
				c0.12-0.03,0.23-0.06,0.32-0.09c0.09-0.03,0.17-0.06,0.22-0.09c0.06-0.03,0.1-0.04,0.13-0.04c0.02,0,0.03,0,0.05,0.01
				c0.01,0.01,0.02,0.02,0.03,0.04c0.01,0.02,0.01,0.04,0.02,0.07c0,0.03,0.01,0.07,0.01,0.11c0,0.03,0,0.06,0,0.08
				c0,0.02-0.01,0.04-0.01,0.06c0,0.02-0.01,0.04-0.02,0.05c-0.01,0.01-0.02,0.03-0.03,0.04c-0.01,0.01-0.05,0.04-0.12,0.07
				c-0.07,0.03-0.15,0.06-0.26,0.09c-0.11,0.03-0.23,0.06-0.37,0.08c-0.14,0.02-0.29,0.04-0.45,0.04c-0.27,0-0.52-0.04-0.72-0.12
				c-0.21-0.08-0.38-0.19-0.52-0.34c-0.14-0.15-0.25-0.34-0.32-0.57c-0.07-0.23-0.11-0.49-0.11-0.79c0-0.29,0.04-0.54,0.11-0.77
				c0.07-0.23,0.18-0.42,0.32-0.58c0.14-0.16,0.31-0.28,0.51-0.37c0.2-0.09,0.42-0.13,0.66-0.13c0.26,0,0.49,0.04,0.67,0.13
				c0.18,0.08,0.34,0.2,0.45,0.34c0.12,0.14,0.21,0.31,0.26,0.5c0.06,0.19,0.08,0.4,0.08,0.61V28.13z M133.58,27.95
				c0.01-0.32-0.06-0.57-0.21-0.76c-0.15-0.18-0.37-0.27-0.67-0.27c-0.15,0-0.29,0.03-0.4,0.09s-0.21,0.13-0.29,0.23
				s-0.14,0.2-0.18,0.33c-0.04,0.13-0.07,0.26-0.07,0.39H133.58z"/>
		</g>
	</g>
</g>
</svg>
